<svg width="38" height="43" viewBox="0 0 38 43" fill="none" xmlns="http://www.w3.org/2000/svg">
    <path fill-rule="evenodd" clip-rule="evenodd"
          d="M2.4732 9.3592L9.2922 5.47573L18.541 0.194168L27.7898 5.47573L37.0385 10.7573V16.8932L31.6696 13.8252L18.541 6.2913L7.8422 12.4272L2.4732 9.3592ZM0.043457 13.5146V19.8058L18.8545 30.5631L24.1059 27.2621L0.043457 13.5146Z"
          fill="#4878A6"/>
    <path fill-rule="evenodd" clip-rule="evenodd"
          d="M34.6088 33.2816L27.7898 37.165L18.541 42.4466L9.2922 37.165L0.043457 31.8835V25.7476L5.4124 28.8155L18.541 36.3107L29.2398 30.1748L34.6088 33.2816ZM23.0478 14.7961L18.6586 12.2719L13.4855 15.2233L16.7775 17.1262L35.5885 27.8835L37.0777 28.7379V22.7961L35.5885 21.9418L23.0478 14.7961Z"
          fill="#2A5275"/>
</svg>
