<svg width="171" height="43" viewBox="0 0 171 43" fill="none" xmlns="http://www.w3.org/2000/svg">
    <path fill-rule="evenodd" clip-rule="evenodd"
          d="M149.674 10.0579V5.55303H170.384V10.019H162.711V22.8346H157.347V10.019H149.674V10.0579ZM71.2587 5.6307V22.9123H76.6221V10.7957L83.6689 22.9123H88.0536L94.6306 10.7957V22.9123H99.3285L101.403 15.4559L99.6025 15.4171L101.677 5.6307H90.8723L86.2919 15.3006H85.4698L80.8893 5.6307H71.2587V5.6307ZM59.5923 18.9899C62.1762 18.9899 63.6638 18.9511 64.0553 18.8734C64.4468 18.7957 64.6817 18.4851 64.6817 17.9414C64.6817 17.2812 64.4076 16.854 63.8204 16.6987C63.2332 16.5433 61.8238 16.4268 59.5923 16.4268C55.1294 16.4268 52.3106 16.1161 51.1362 15.4559C49.9617 14.7957 49.3745 13.2035 49.3745 10.6792C49.3745 8.31031 50.1183 6.83458 51.6451 6.17439C52.8196 5.66953 55.4034 5.43652 59.4357 5.43652C63.0374 5.43652 65.3081 5.51419 66.2476 5.70837C68.0485 6.05788 69.1447 7.33944 69.497 9.59186H59.5532H59.4357C57.0085 9.59186 55.6383 9.6307 55.2468 9.70837C54.8553 9.78604 54.6987 10.1356 54.6987 10.6792C54.6987 11.2618 55.0119 11.6501 55.6383 11.8443C56.2647 12.0385 57.5566 12.1161 59.5532 12.1161C63.977 12.1161 66.7957 12.4657 68.0876 13.1647C69.3796 13.8637 70.0059 15.4559 70.0059 17.9414C70.0059 20.2326 69.3013 21.7084 67.8527 22.3686C66.6 22.9123 63.8596 23.1841 59.514 23.1841C56.1864 23.1841 54.0332 23.1064 53.0545 22.9511C51.5276 22.7181 50.4706 22.2132 49.9225 21.3589C49.5702 20.8152 49.3353 20.0385 49.1787 18.9899H59.3966H59.5923V18.9899ZM108.568 5.6307H117.963L126.576 22.8734H120.312L118.668 19.9608H108.059L106.414 22.8734H100.151L100.19 22.7957L107.315 12.9705L104.066 12.7763L108.568 5.6307ZM113.735 9.51419H112.913L110.016 15.4948H116.632L113.735 9.51419ZM127.281 5.55303H142.862C144.78 5.55303 146.151 5.90254 146.934 6.60157C147.795 7.33944 148.226 8.69866 148.226 10.6016C148.226 12.0773 148.03 13.2035 147.677 13.9025C147.325 14.6016 146.699 15.1453 145.798 15.4948C146.777 15.922 147.403 16.3491 147.717 16.7375C148.03 17.1647 148.186 17.9025 148.186 18.9899V22.8734H142.823V19.7666C142.823 19.3006 142.705 18.9511 142.471 18.6404C142.157 18.2521 141.688 18.019 141.1 18.019H132.644V22.8346H127.281V5.55303ZM132.605 10.0579V13.5919H141.218C141.805 13.5919 142.236 13.4754 142.471 13.2035C142.705 12.9705 142.862 12.5045 142.862 11.8443C142.862 11.1841 142.745 10.7181 142.471 10.4462C142.197 10.1744 141.805 10.0579 141.218 10.0579H132.605Z"
          fill="#4878A6"/>
    <path fill-rule="evenodd" clip-rule="evenodd"
          d="M158.443 27.2234H164.59L170.345 38.7574H166.156L165.06 36.8156H157.934L156.838 38.7574H152.649L158.443 27.2234ZM128.416 29.9419V30.7962V35.9224V38.7574H132.018V35.9224V28.4273V27.2234H126.146L119.999 35.7671C119.96 35.8836 119.921 35.9613 119.843 36.0778V35.1846V31.0681V27.2234H116.241V31.0681V37.903V38.7574H122.113L128.26 30.2137C128.338 30.136 128.377 30.0195 128.416 29.9419ZM161.81 29.8253H161.262L159.305 33.8253H163.728L161.81 29.8253ZM136.05 27.2234H139.652V31.2622H141.531L145.603 27.2234H150.535L144.702 32.738L151.279 38.7962H146.072L141.531 34.2914H139.652V38.7962H136.05V27.2234ZM97.9974 27.2234H101.599V31.2622H109.351V27.2234H112.952V38.7574H109.351V34.2525H101.599V38.7574H97.9974V27.2234ZM79.8715 27.1846L85.1957 32.8545L79.8715 38.7574H84.6868L88.2102 34.8739L91.7336 38.7574H96.5489L91.2247 32.8545L96.5489 27.1846H91.577L88.2102 30.9127L84.8434 27.1846H79.8715ZM65.3864 38.7574V27.1846H77.9532V29.9807H68.9881V31.6118H77.5617V34.4079H68.9881V36.0001H77.9532V38.7962H65.3864V38.7574ZM49.3745 30.1749V27.1846H63.2332V30.1749H58.1047V38.7574H54.503V30.1749H49.3745Z"
          fill="#2A5275"/>
    <path fill-rule="evenodd" clip-rule="evenodd"
          d="M3.13957 9.35939L9.95149 5.47589L19.1906 0.194336L28.4298 5.47589L37.6689 10.7574V16.8934L32.3055 13.8254L19.1906 6.29142L8.50298 12.4273L3.13957 9.35939ZM0.712341 13.5147V19.806L19.5038 30.5633L24.7498 27.2623L0.712341 13.5147Z"
          fill="#4878A6"/>
    <path fill-rule="evenodd" clip-rule="evenodd"
          d="M35.2417 33.2812L28.4298 37.1647L19.1906 42.4462L9.95149 37.1647L0.712341 31.8831V25.7472L6.07575 28.8152L19.1906 36.3103L29.8783 30.1744L35.2417 33.2812ZM23.6928 14.7958L19.3081 12.2715L14.1404 15.2229L17.4289 17.1259L36.2204 27.8831L37.7081 28.7375V22.7958L36.2204 21.9414L23.6928 14.7958Z"
          fill="#2A5275"/>
</svg>
